<mxfile host="Electron" agent="Mozilla/5.0 (Macintosh; Intel Mac OS X 10_15_7) AppleWebKit/537.36 (KHTML, like Gecko) draw.io/28.0.6 Chrome/138.0.7204.100 Electron/37.2.3 Safari/537.36" version="28.0.6">
  <diagram name="Page-1" id="JTJ8W4KTvw2Z7UBOpNUC">
    <mxGraphModel dx="932" dy="717" grid="1" gridSize="10" guides="1" tooltips="1" connect="1" arrows="1" fold="1" page="1" pageScale="1" pageWidth="850" pageHeight="1100" math="0" shadow="0">
      <root>
        <mxCell id="0" />
        <mxCell id="1" parent="0" />
        <mxCell id="Fl31v1kWHyNt1szDdYhc-5" value="create / validate" style="edgeStyle=orthogonalEdgeStyle;rounded=0;orthogonalLoop=1;jettySize=auto;html=1;entryX=0;entryY=0.5;entryDx=0;entryDy=0;" edge="1" parent="1" source="Fl31v1kWHyNt1szDdYhc-1" target="Fl31v1kWHyNt1szDdYhc-2">
          <mxGeometry relative="1" as="geometry" />
        </mxCell>
        <mxCell id="Fl31v1kWHyNt1szDdYhc-1" value="Authoring Tools" style="rounded=0;whiteSpace=wrap;html=1;" vertex="1" parent="1">
          <mxGeometry x="120" y="280" width="120" height="60" as="geometry" />
        </mxCell>
        <mxCell id="Fl31v1kWHyNt1szDdYhc-8" value="retrieve set" style="edgeStyle=orthogonalEdgeStyle;rounded=0;orthogonalLoop=1;jettySize=auto;html=1;entryX=0.5;entryY=0;entryDx=0;entryDy=0;" edge="1" parent="1" source="Fl31v1kWHyNt1szDdYhc-2" target="Fl31v1kWHyNt1szDdYhc-3">
          <mxGeometry relative="1" as="geometry" />
        </mxCell>
        <mxCell id="Fl31v1kWHyNt1szDdYhc-2" value="CxU Store&amp;nbsp;&lt;div&gt;(content-addressed)&lt;/div&gt;" style="rounded=0;whiteSpace=wrap;html=1;" vertex="1" parent="1">
          <mxGeometry x="365" y="280" width="120" height="60" as="geometry" />
        </mxCell>
        <mxCell id="Fl31v1kWHyNt1szDdYhc-7" style="edgeStyle=orthogonalEdgeStyle;rounded=0;orthogonalLoop=1;jettySize=auto;html=1;entryX=1;entryY=0.5;entryDx=0;entryDy=0;" edge="1" parent="1" source="Fl31v1kWHyNt1szDdYhc-3" target="Fl31v1kWHyNt1szDdYhc-4">
          <mxGeometry relative="1" as="geometry" />
        </mxCell>
        <mxCell id="Fl31v1kWHyNt1szDdYhc-3" value="Prompt Pack" style="rounded=0;whiteSpace=wrap;html=1;" vertex="1" parent="1">
          <mxGeometry x="365" y="400" width="120" height="60" as="geometry" />
        </mxCell>
        <mxCell id="Fl31v1kWHyNt1szDdYhc-6" value="search / filter" style="edgeStyle=orthogonalEdgeStyle;rounded=0;orthogonalLoop=1;jettySize=auto;html=1;entryX=0.5;entryY=1;entryDx=0;entryDy=0;" edge="1" parent="1" source="Fl31v1kWHyNt1szDdYhc-4" target="Fl31v1kWHyNt1szDdYhc-1">
          <mxGeometry relative="1" as="geometry" />
        </mxCell>
        <mxCell id="Fl31v1kWHyNt1szDdYhc-4" value="Query API" style="rounded=0;whiteSpace=wrap;html=1;" vertex="1" parent="1">
          <mxGeometry x="120" y="400" width="120" height="60" as="geometry" />
        </mxCell>
      </root>
    </mxGraphModel>
  </diagram>
</mxfile>
